<svg version="1.1" id="Layer_1" xmlns="http://www.w3.org/2000/svg" xmlns:xlink="http://www.w3.org/1999/xlink" x="0px" y="0px"
	 width="100%" viewBox="0 0 1080 1080" enable-background="new 0 0 1080 1080" xml:space="preserve">
<path fill="#FFFFFF" opacity="1.000000" stroke="none" 
	d="
M522.000000,1081.000000 
	C348.020020,1081.000000 174.540039,1081.000000 1.030031,1081.000000 
	C1.030031,721.061584 1.030031,361.123138 1.030031,1.092345 
	C360.896881,1.092345 720.793762,1.092345 1080.845337,1.092345 
	C1080.845337,360.999939 1080.845337,720.999939 1080.845337,1081.000000 
	C894.789307,1081.000000 708.644653,1081.000000 522.000000,1081.000000 
M489.500000,802.000000 
	C511.160400,802.000000 532.821350,801.920837 554.480774,802.063477 
	C559.078308,802.093689 561.813721,800.504395 563.128906,796.000854 
	C563.871948,793.456421 567.944824,792.462769 566.747925,788.824463 
	C571.419556,788.111877 569.494934,784.204956 570.219666,781.350403 
	C571.417419,781.116211 572.635925,780.877991 573.854492,780.639709 
	C573.483093,780.336487 573.111755,780.033203 572.740356,779.729919 
	C575.031738,775.983398 577.323120,772.236816 579.614502,768.490234 
	C581.704407,765.228638 583.138000,761.489319 585.066589,758.025696 
	C586.715332,755.064880 588.931946,752.420349 590.897400,749.635925 
	C590.957336,749.755615 591.017273,749.875305 591.077209,749.994995 
	C593.297668,745.558289 595.518127,741.121521 597.738525,736.684814 
	C598.193787,736.876160 598.648987,737.067505 599.104248,737.258850 
	C599.104248,735.766663 598.664795,734.065979 599.242859,732.848145 
	C599.707947,731.868408 601.404114,731.473022 602.705078,730.732361 
	C602.534607,730.023254 602.242004,728.805908 601.892395,727.351257 
	C603.365906,727.103333 604.582520,726.898621 604.913147,726.842957 
	C606.928162,721.890991 608.013245,717.172974 610.560242,713.457092 
	C614.170288,708.190369 619.073242,703.804871 620.095398,697.030212 
	C620.199585,696.340332 621.062256,695.211670 621.549927,695.223694 
	C624.498108,695.296143 623.465332,692.904602 624.219482,691.530090 
	C625.902161,688.463379 628.066772,685.661072 630.035034,682.751038 
	C631.241028,680.403015 632.701294,678.148743 634.000061,675.804993 
	C635.410767,673.259277 636.537292,670.549255 638.041565,668.064453 
	C639.148743,666.235535 641.029419,664.824036 641.915649,662.923523 
	C643.393555,659.754150 644.326721,656.333008 645.560303,653.044556 
	C645.706665,652.654419 646.375183,652.491760 646.668030,652.118713 
	C647.500061,651.058838 648.287659,649.961609 649.046814,648.847595 
	C650.001038,647.447388 650.909485,646.015991 652.230347,643.998230 
	C649.709229,641.079163 654.279602,641.650391 656.061646,640.164368 
	C656.061646,638.422852 656.061646,636.462097 656.061646,634.380127 
	C657.498535,634.081360 658.707947,633.829956 659.591614,633.646240 
	C660.015991,631.196106 659.644226,628.362732 660.854736,627.248901 
	C665.181641,623.267578 667.421082,618.026367 670.290833,613.191223 
	C672.257812,609.877014 673.483948,606.129395 675.258545,602.687683 
	C675.512329,602.195496 676.992676,602.335693 677.905334,602.183167 
	C677.576477,601.925354 677.247681,601.667542 676.918823,601.409668 
	C678.022278,599.914246 679.125732,598.418762 680.874634,596.048645 
	C681.137085,591.442139 681.137085,591.442139 684.188171,589.834656 
	C685.758728,586.086731 687.808105,582.643860 689.943298,579.255127 
	C691.898560,576.152039 694.199829,573.239136 695.884521,570.000977 
	C697.657837,566.592468 698.826111,562.872498 700.436340,559.370300 
	C700.582764,559.051819 702.022644,559.327942 701.609253,559.327942 
	C703.204224,557.400085 704.625305,556.294189 705.185791,554.853516 
	C705.923218,552.958069 705.983887,550.799316 706.393127,548.418884 
	C707.395264,548.135681 708.700378,547.766846 709.890503,547.430481 
	C709.997437,545.123230 710.087830,543.173157 710.188965,540.991272 
	C711.550903,541.163208 712.621094,541.298340 712.455322,541.277405 
	C716.145386,534.655029 719.525024,528.442078 723.576294,522.435486 
	C727.557678,516.532532 730.488159,509.920837 733.879822,503.620148 
	C735.619263,501.848755 733.184387,497.330414 737.815918,498.191284 
	C739.553650,494.441650 741.129456,491.041412 742.907349,487.205078 
	C743.561401,487.056030 744.768555,486.780884 745.975769,486.505707 
	C745.524902,486.157166 745.074097,485.808624 744.623291,485.460052 
	C749.396790,477.229309 754.170288,468.998535 758.943787,460.767792 
	C760.182983,458.341980 758.815613,454.447662 764.212952,454.664154 
	C763.000488,450.368225 766.710815,444.976379 760.102417,443.272064 
	C760.001160,441.156677 759.907043,439.192291 759.816223,437.295441 
	C758.356506,437.021851 757.174011,436.800232 756.491577,436.672333 
	C756.238586,434.216492 756.410217,430.937134 755.804077,430.786499 
	C751.266663,429.658539 753.728638,425.951538 752.635498,423.316437 
	C751.597656,423.116608 750.387817,422.883667 749.877197,422.785339 
	C748.203552,418.052582 746.738647,413.909973 745.474243,410.334381 
	C744.269165,409.708801 742.526733,409.332764 742.399658,408.654205 
	C741.439087,403.524414 738.423401,399.443390 736.003113,395.038330 
	C734.122253,391.615265 733.133423,387.509155 730.646545,384.672211 
	C728.600281,382.337799 727.758057,380.293274 727.949951,377.454010 
	C727.977661,377.044739 727.735962,376.457855 727.418396,376.208618 
	C723.019592,372.755829 721.284851,368.023804 720.724670,362.517731 
	C719.551819,362.149353 718.261536,361.744110 718.116760,361.698639 
	C716.126099,356.724213 715.558777,351.445709 712.633118,349.063599 
	C709.608459,346.600830 710.447815,344.238220 709.326965,341.978180 
	C706.865845,338.337769 704.915100,334.446655 703.010132,330.533234 
	C702.125610,328.716156 701.330322,326.855652 700.494629,325.014832 
	C700.293640,325.061615 700.092590,325.108398 699.891602,325.155212 
	C698.830566,322.542664 697.769531,319.930115 696.708496,317.317566 
	C695.702759,316.055573 695.772034,313.131348 695.223816,313.010559 
	C690.568298,311.985168 692.530457,308.179779 691.773193,305.348022 
	C690.575378,305.115784 689.365234,304.881104 689.084595,304.826691 
	C687.323853,300.290680 685.849915,296.493561 684.819702,293.839539 
	C683.485596,292.508636 682.609497,292.010376 682.315125,291.278259 
	C680.753479,287.394226 680.272339,282.589020 677.642761,279.740570 
	C674.106873,275.910309 672.644836,271.279968 670.106567,267.086121 
	C662.061401,266.868195 662.083069,266.874847 659.936462,273.877045 
	C659.712036,274.609070 659.142273,275.315979 658.560059,275.844147 
	C655.424866,278.687866 651.869202,281.269989 653.031738,286.385284 
	C651.551086,286.851044 650.260376,287.257050 648.969727,287.663055 
	C649.301453,287.923218 649.633179,288.183380 649.964905,288.443542 
	C648.184875,292.172058 646.778870,296.148499 644.518188,299.558289 
	C642.325195,302.865814 639.504395,305.298737 638.412964,309.756866 
	C637.742310,312.496368 634.778687,315.833435 632.822083,318.889343 
	C632.748352,319.004395 631.828918,318.577911 630.434753,318.115784 
	C633.831848,322.533875 630.251221,322.757782 627.975830,323.469757 
	C627.975830,325.663605 627.975830,327.483063 627.975830,329.444580 
	C626.586975,329.856384 625.285767,330.242188 624.160583,330.575836 
	C624.009399,332.772003 624.562195,335.122894 623.631104,336.299286 
	C620.970764,339.660553 617.940308,342.363373 616.477112,346.912018 
	C615.787354,349.056152 613.343628,351.132843 612.642456,354.233887 
	C612.036316,356.914764 609.483093,359.150635 607.809875,361.596405 
	C606.194031,363.958130 604.533936,366.293854 603.023743,368.722137 
	C601.925110,370.488831 601.038940,372.387634 600.057983,374.227509 
	C600.120056,374.336853 600.182068,374.446198 600.244080,374.555511 
	C597.850769,378.212585 595.457397,381.869629 592.200134,386.846771 
	C591.284302,388.758179 589.822754,392.289886 587.946289,395.585388 
	C586.173401,398.698944 583.964478,401.564301 581.947388,404.538818 
	C580.083984,407.632324 578.876099,411.275635 577.536682,414.869843 
	C577.354919,415.357666 576.422180,415.514923 575.997192,415.973541 
	C575.143188,416.895111 574.290894,417.852295 573.636841,418.917023 
	C572.746521,420.366333 572.166321,422.012329 571.228333,423.424683 
	C569.929810,425.380005 567.167969,427.249725 567.244934,429.062164 
	C567.455322,434.017609 563.842163,437.652740 561.590088,440.067932 
	C557.731567,444.205841 555.969055,449.208771 553.201904,453.664185 
	C549.762024,459.202667 547.397766,465.381195 542.582214,470.078491 
	C541.932861,470.711914 542.244812,472.273682 541.978516,473.373383 
	C541.719604,474.442841 541.408447,476.311829 540.915649,476.381439 
	C537.568848,476.854218 538.088135,479.216248 537.910950,481.453094 
	C537.844360,482.293427 537.170227,483.354248 536.452026,483.831573 
	C531.032104,487.433746 530.390076,493.968536 527.111694,498.877777 
	C525.223572,501.705231 523.882324,504.895172 522.171021,507.850159 
	C522.062256,508.037994 520.880188,507.604279 520.240723,507.468872 
	C520.121155,508.966583 520.300476,510.376343 519.849304,511.542084 
	C519.114868,513.440063 517.937317,515.162903 517.011597,516.992432 
	C516.656128,517.694946 516.518250,519.124695 516.213806,519.143677 
	C511.293427,519.451050 513.791504,525.295105 510.206024,526.982300 
	C508.307373,527.875793 507.201782,530.727844 506.042999,532.861206 
	C503.873138,536.856018 502.053619,541.042358 499.851288,545.017700 
	C497.270264,549.676636 494.406647,554.178162 491.722198,558.780945 
	C489.761047,562.143494 488.003937,565.630005 485.937988,568.924622 
	C484.730164,570.850708 483.094360,572.508484 481.651093,574.286926 
	C480.797241,576.741943 479.215271,578.740173 478.130615,580.979309 
	C476.898834,583.522156 477.409973,586.752686 474.090149,588.471924 
	C472.354645,589.370728 470.944336,591.512329 470.112000,593.410461 
	C468.444580,597.213135 467.293182,601.240784 465.868713,605.153748 
	C465.747406,605.487122 465.071930,605.581238 464.831512,605.914612 
	C462.666565,608.916138 460.541382,611.946289 458.404510,614.968079 
	C457.996216,616.098145 456.074066,617.116882 456.157349,617.930237 
	C456.685333,623.084717 452.032745,625.606750 450.421448,629.699341 
	C448.603271,634.317200 443.263245,637.890808 442.416962,642.466431 
	C441.234589,648.859131 433.330536,651.117432 434.305267,658.099670 
	C434.319916,658.204468 434.107635,658.435242 433.980865,658.451843 
	C429.278503,659.068054 431.640686,662.929749 430.621124,665.889709 
	C425.088440,664.321716 427.595551,669.581604 425.969299,671.699341 
	C424.276917,673.903198 422.593536,676.114014 420.906219,678.321838 
	C420.003082,679.785706 420.369843,682.080078 419.467621,683.640869 
	C417.702850,686.693787 415.255249,689.357605 413.039886,692.142395 
	C411.785278,693.719421 410.066803,695.036621 409.199280,696.788818 
	C407.566803,700.086121 406.440277,703.630920 405.006287,707.031982 
	C404.691833,707.777832 403.879242,708.297791 403.452209,709.014832 
	C401.516052,712.265808 399.635864,715.550110 397.735565,718.822388 
	C398.100311,719.055420 398.465088,719.288391 398.829865,719.521423 
	C397.538574,719.886414 396.247314,720.251404 394.921143,720.626282 
	C394.921143,722.803650 394.921143,724.625122 394.921143,726.446594 
	C394.629150,726.263428 394.337158,726.080322 394.045135,725.897156 
	C391.088409,730.447754 388.131683,734.998413 385.174927,739.549011 
	C384.001068,740.862854 384.294067,743.104004 383.421997,744.714111 
	C381.606567,748.065857 379.415802,751.292725 376.920624,754.173645 
	C374.859100,756.553894 374.143280,761.261414 373.146057,761.684143 
	C368.986908,763.447266 370.333130,766.611267 368.850250,768.734558 
	C366.542084,772.520508 364.233948,776.306396 361.408264,780.941162 
	C361.483948,780.924927 360.272552,781.185425 359.728027,781.302551 
	C358.952332,783.909973 358.743103,786.187683 357.664825,787.926392 
	C355.006104,792.213501 350.450836,795.692688 352.451935,802.000000 
	C397.899139,802.000000 443.199585,802.000000 489.500000,802.000000 
M504.457123,461.986816 
	C505.965485,457.453918 509.989746,453.582733 508.902130,448.414703 
	C507.926361,443.778137 506.504761,439.098877 503.402527,436.737183 
	C501.771942,433.258087 500.568207,430.689728 498.967377,427.274048 
	C500.070404,425.089233 498.939392,423.022430 494.850281,422.590027 
	C494.850281,420.385284 494.850281,418.486053 494.850281,417.138733 
	C490.984985,416.324341 490.153137,414.579254 490.593140,412.145233 
	C486.915894,405.144684 483.238678,398.144165 479.561462,391.143616 
	C478.294067,390.440613 473.201904,380.698273 473.190002,376.188477 
	C472.129700,375.992828 471.081604,375.799438 469.977905,375.595764 
	C469.977905,373.365082 469.977905,371.545715 469.977905,369.726318 
	C469.504486,369.934021 469.031067,370.141754 468.557648,370.349457 
	C466.320862,365.572357 464.084076,360.795258 461.408966,355.082062 
	C461.586945,355.116394 460.377899,354.883209 459.863556,354.783997 
	C458.178619,349.986847 456.703400,345.786743 455.110901,341.252777 
	C449.778564,340.987518 453.008545,336.000000 451.628448,333.324493 
	C450.428192,333.054871 449.247711,332.789673 448.913239,332.714539 
	C448.499573,330.236664 448.633484,327.191833 447.839203,326.926575 
	C443.731293,325.554779 445.456543,322.244141 444.796783,319.463104 
	C443.617828,319.135284 442.307251,318.770844 440.996643,318.406403 
	C441.353729,318.140411 441.710846,317.874420 442.067932,317.608429 
	C439.757599,312.871582 437.447266,308.134766 435.136902,303.397919 
	C434.975647,303.448425 434.814392,303.498962 434.653107,303.549469 
	C433.059662,299.998779 431.466187,296.448090 429.719391,292.555695 
	C429.807190,292.564789 428.356323,292.644836 428.286652,292.372131 
	C427.529480,289.407318 425.973663,287.069885 424.235016,284.512024 
	C421.281128,280.166321 420.246948,274.697510 417.092804,270.204407 
	C414.645630,266.718414 412.178040,265.449982 408.937256,268.492523 
	C406.167664,271.092712 404.071442,274.506866 402.073395,277.801178 
	C400.505585,280.386108 400.233978,284.868774 398.164948,285.802948 
	C394.067932,287.652863 395.349304,290.645203 393.833832,292.764954 
	C391.527252,296.547577 389.220703,300.330200 386.405396,304.947052 
	C386.469330,304.932953 385.256653,305.200500 384.190582,305.435730 
	C383.592468,308.328735 385.131653,311.428436 381.162506,312.971436 
	C379.211792,313.729797 381.780792,318.845337 377.188934,318.674225 
	C375.887329,322.143494 374.578522,325.706482 373.183136,329.235260 
	C373.044678,329.585358 372.243927,329.627228 371.980164,329.982574 
	C371.076996,331.199524 370.164490,332.435150 369.476471,333.776947 
	C369.035858,334.636169 369.311523,336.165344 368.704865,336.587433 
	C364.901367,339.233643 362.143036,342.324402 363.035797,347.609131 
	C361.633026,347.881256 360.421387,348.116302 359.209717,348.351379 
	C359.646332,348.678314 360.082916,349.005280 360.519531,349.332245 
	C352.004120,363.566376 343.488678,377.800507 334.545990,392.748901 
	C330.968414,399.415100 327.209320,406.982025 322.926575,414.239899 
	C318.737274,421.339355 314.014008,428.123688 309.525146,435.046356 
	C308.785645,437.315125 307.600647,439.361847 306.359192,441.373779 
	C304.483215,444.414093 302.567902,447.430145 300.669281,450.456543 
	C301.072906,450.791534 301.476532,451.126556 301.880157,451.461578 
	C300.580139,451.852844 299.280121,452.244110 299.349884,452.223114 
	C297.898621,455.208069 296.968597,457.122711 296.036957,459.036560 
	C295.082855,460.996613 294.432251,463.199493 293.104828,464.861694 
	C290.771118,467.784241 287.429260,469.996735 287.714142,474.431702 
	C287.762665,475.187134 286.996338,476.648834 286.537476,476.677429 
	C283.430389,476.870972 284.019714,479.239624 283.487274,481.108215 
	C283.227844,482.018555 282.145477,482.694336 281.435608,483.476318 
	C280.932617,483.232086 280.429596,482.987885 279.926605,482.743683 
	C280.240631,483.950165 280.554626,485.156647 280.868652,486.363129 
	C280.481476,486.205933 280.094269,486.048737 279.707092,485.891541 
	C278.804474,487.726593 277.969208,489.599121 276.976440,491.384003 
	C276.272827,492.649017 275.342377,493.786346 274.539764,494.998260 
	C274.002838,495.809052 273.478699,496.631958 273.007416,497.481903 
	C271.157623,500.817780 269.330994,504.166595 267.495758,507.510590 
	C267.074554,507.175903 266.653320,506.841217 266.802979,506.960144 
	C262.720612,515.377502 259.251251,524.046692 251.943176,531.531799 
	C251.943176,532.601501 251.943176,534.570862 251.943176,536.540283 
	C251.473755,536.386292 251.004333,536.232300 250.534927,536.078308 
	C249.689850,537.778015 248.769501,539.445801 248.031464,541.190735 
	C247.662415,542.063293 247.926956,543.320374 247.388412,543.984924 
	C244.810425,547.166260 240.972290,548.819397 240.457642,554.221558 
	C240.071289,558.277039 235.883469,561.957031 233.444809,565.839844 
	C232.848541,566.789185 232.704742,568.123169 231.940369,568.841003 
	C230.992813,569.730835 227.053802,574.876221 227.005325,576.059570 
	C226.929062,577.921326 226.604034,578.972168 224.720016,580.515930 
	C221.987381,582.754944 220.951080,587.064270 219.019180,590.825623 
	C218.409439,590.962097 217.203552,591.231995 216.523575,591.384155 
	C215.985535,593.918335 215.817474,596.019714 215.061905,597.882812 
	C214.371521,599.585144 212.992447,600.997375 212.017960,602.599060 
	C211.376801,603.652832 211.142975,605.028748 210.334564,605.893982 
	C206.243225,610.272705 203.362045,615.253357 201.377899,620.942139 
	C200.271072,624.115601 198.077972,626.920654 196.245026,629.809509 
	C196.103622,630.032288 194.935059,629.603333 194.148804,629.459961 
	C194.481079,630.883179 194.765823,632.102844 195.084213,633.466553 
	C193.578232,633.873169 192.277420,634.224426 190.976608,634.575684 
	C191.411514,634.933411 191.846420,635.291199 192.281342,635.648987 
	C189.792175,639.793213 187.386414,643.990845 184.780426,648.060181 
	C183.373718,650.256897 180.945801,652.011475 180.175354,654.358337 
	C178.697647,658.859619 177.056412,662.987427 173.528076,666.388000 
	C171.616287,668.230652 169.117523,671.060425 169.353348,673.168701 
	C169.726562,676.505432 167.993637,677.043518 165.864288,677.718262 
	C165.864288,679.895264 165.864288,681.703247 165.864288,683.511230 
	C165.395218,683.341492 164.926132,683.171692 164.457062,683.001953 
	C163.586105,684.535339 162.765167,686.099915 161.833740,687.595703 
	C159.955322,690.612122 158.016815,693.591125 156.103119,696.585571 
	C154.997406,697.956787 155.293579,700.223328 154.386261,701.795227 
	C152.625900,704.845215 150.187119,707.503113 148.033432,710.326477 
	C146.810257,711.929993 145.246933,713.385437 144.452438,715.180054 
	C143.030975,718.390991 142.125916,721.827148 140.883301,725.123291 
	C140.618744,725.825073 139.788269,726.295837 139.298370,726.934265 
	C138.476318,728.005615 137.673233,729.097046 136.942047,730.231567 
	C134.959488,733.307556 133.018845,736.410706 130.633423,740.179504 
	C129.550720,742.232483 128.066910,745.016418 126.611244,747.815002 
	C125.263695,750.405762 124.598183,754.251160 122.484795,755.363098 
	C117.530380,757.969910 118.752068,763.546082 115.656212,766.809570 
	C114.760612,767.753601 114.128639,768.945679 113.359886,770.012512 
	C111.608932,772.442505 109.701805,774.776428 108.150017,777.326965 
	C107.313812,778.701416 107.079315,780.441956 106.573326,782.017334 
	C104.966927,783.763550 105.139938,786.724487 103.801941,787.792419 
	C98.934166,791.677979 98.079781,796.289917 99.438110,801.779846 
	C99.904778,801.873535 100.063545,801.933350 100.222321,801.933411 
	C167.378494,801.958191 234.534653,801.980164 301.690826,801.988098 
	C302.677948,801.988159 303.972198,802.182312 304.602478,801.658936 
	C308.754700,798.210999 310.938660,793.543945 312.487976,788.291992 
	C313.481537,788.083923 314.701385,787.828491 315.921234,787.572998 
	C315.505798,787.234131 315.090363,786.895203 314.674927,786.556274 
	C317.126801,782.349915 319.467590,778.072998 322.075470,773.965698 
	C323.465912,771.775757 325.768677,770.091919 326.852142,767.798157 
	C328.338806,764.650757 329.025665,761.130249 330.139526,757.797729 
	C330.330933,757.225037 330.984375,756.821899 331.352295,756.290527 
	C333.733429,752.851868 336.094604,749.399353 338.462311,745.951416 
	C338.128510,745.725830 337.794739,745.500305 337.460938,745.274719 
	C338.542450,745.018188 339.623962,744.761597 340.705475,744.505066 
	C339.532745,739.899475 343.502960,737.310364 345.097137,733.838928 
	C346.498688,730.786926 349.015778,728.247131 351.826416,724.406921 
	C353.596344,716.180298 360.538696,709.197754 364.884460,700.759460 
	C365.277985,700.936768 365.671509,701.114136 366.065033,701.291504 
	C366.065033,699.316406 366.065033,697.341309 366.065033,695.366272 
	C366.413971,695.557312 366.762909,695.748352 367.111847,695.939453 
	C369.951294,691.493103 372.790741,687.046753 376.053864,681.936951 
	C378.119080,678.374329 380.590820,674.175232 382.998047,669.939392 
	C385.358704,665.785522 387.653717,661.594360 389.977570,657.419556 
	C390.360474,657.600037 390.743378,657.780518 391.126282,657.960999 
	C391.126282,656.152649 391.126282,654.344238 391.126282,652.372253 
	C392.472778,652.098022 393.692017,651.849731 394.911285,651.601440 
	C394.491364,651.253967 394.071442,650.906494 393.651520,650.559021 
	C396.014038,646.856506 398.376556,643.153992 400.739075,639.451477 
	C400.697266,639.455383 400.655426,639.459290 400.613617,639.463257 
	C405.355835,631.208801 410.098053,622.954407 414.840271,614.700012 
	C414.893616,614.732239 414.946960,614.764404 415.000305,614.796631 
	C416.326813,612.426270 417.653320,610.055847 418.979828,607.685486 
	C418.902435,607.610229 418.825012,607.534912 418.747620,607.459656 
	C421.118317,603.768311 423.489044,600.076965 425.859741,596.385620 
	C427.699310,593.167236 429.174042,589.626953 431.045868,586.310791 
	C432.802521,583.198730 434.978943,580.323608 436.970642,577.344177 
	C437.043030,577.424194 437.115387,577.504150 437.187775,577.584106 
	C439.371429,573.301270 441.555115,569.018372 444.123230,563.981445 
	C446.091034,560.916870 448.453186,557.238159 450.815338,553.559448 
	C452.368286,550.959229 454.493347,548.626221 455.458496,545.884827 
	C456.993835,541.523804 459.065491,537.848083 462.488129,534.610840 
	C464.323914,532.874573 464.825470,529.753540 466.013885,527.298462 
	C466.921967,525.422546 467.963196,523.611145 468.945190,521.771057 
	C468.898010,521.669006 468.850830,521.566895 468.803619,521.464783 
	C471.198700,517.848450 473.593781,514.232117 475.988831,510.615814 
	C476.325623,510.810822 476.662415,511.005829 476.999207,511.200836 
	C476.999207,509.377960 476.999207,507.555054 476.999207,505.517212 
	C478.378723,505.135498 479.690430,504.772583 481.002136,504.409637 
	C480.571136,504.066528 480.140137,503.723419 479.709137,503.380341 
	C482.072784,499.375305 484.436401,495.370270 486.800018,491.365234 
	C486.822937,491.380890 486.845825,491.396515 486.868744,491.412140 
	C491.562073,483.408142 496.255371,475.404144 500.948700,467.400146 
	C501.067200,467.518433 501.185730,467.636688 501.304230,467.754974 
	C502.058655,465.840546 502.813080,463.926086 504.457123,461.986816 
M780.071045,814.997498 
	C847.986694,814.997498 915.902283,814.997498 984.764404,814.997498 
	C983.674500,809.238647 982.740723,804.304993 981.807007,799.371338 
	C978.959717,796.905518 976.944824,793.879089 975.058655,790.774475 
	C974.595703,790.012451 974.690918,788.279968 974.296265,788.203796 
	C969.388000,787.257568 971.898560,781.509888 968.199707,779.215576 
	C965.773193,777.710571 965.498596,773.101685 963.502258,770.454590 
	C960.281982,766.184326 956.989624,762.110657 956.680725,756.290161 
	C955.519653,756.086426 954.313232,755.874756 952.885620,755.624207 
	C953.257874,753.964722 953.550537,752.660095 953.623474,752.335022 
	C952.382812,751.532959 951.331604,751.237183 951.090210,750.623108 
	C950.447754,748.988342 950.299500,745.782715 949.699158,745.721863 
	C943.971741,745.141113 947.822083,737.726135 943.047058,736.761902 
	C945.161621,731.891541 939.442627,730.918274 938.266357,727.416992 
	C936.670044,722.665344 933.110535,718.573242 930.770325,714.805542 
	C928.718445,711.409424 927.054565,708.639282 925.373901,705.879333 
	C924.358459,704.211731 923.317078,702.559753 922.287415,700.900757 
	C920.191711,699.092529 922.904846,695.093750 918.084595,694.477295 
	C917.814514,694.442688 917.368958,693.696106 917.441467,693.381470 
	C918.377686,689.317322 914.372070,687.461609 913.074951,684.380432 
	C911.161560,679.835632 906.633911,676.399353 906.838318,671.426636 
	C900.390564,666.258484 897.507019,659.616821 895.155762,652.205933 
	C894.440552,652.055420 893.249329,651.804810 891.827637,651.505737 
	C892.236389,649.978027 892.555481,648.785400 892.874634,647.592773 
	C892.451172,647.697571 892.027649,647.802368 891.604187,647.907166 
	C891.038818,647.112915 890.098755,646.374207 889.971375,645.515076 
	C889.348389,641.312073 883.568115,639.539917 884.839600,634.497925 
	C884.853516,634.442688 884.539551,634.345581 884.451111,634.217773 
	C882.292847,631.100891 880.024353,628.051514 878.033264,624.830688 
	C876.505005,622.358521 875.401184,619.627930 873.974548,617.087585 
	C872.666016,614.757324 871.178162,612.527771 869.769348,610.253784 
	C870.123535,609.936035 870.477722,609.618286 870.831909,609.300537 
	C869.612549,609.099365 868.393188,608.898193 866.985901,608.666016 
	C867.150024,607.568359 867.288879,606.639648 867.427734,605.710938 
	C867.168396,605.877686 866.909058,606.044434 866.649719,606.211182 
	C865.463989,603.692322 864.278198,601.173462 862.854492,598.149048 
	C862.496704,598.069702 861.282104,597.800354 860.067505,597.531006 
	C860.417603,597.225769 860.767700,596.920593 861.117859,596.615356 
	C859.754211,594.324524 858.282288,592.090027 857.053894,589.728882 
	C855.442139,586.630676 854.203186,583.329529 852.477356,580.301758 
	C849.929138,575.831116 847.093323,571.524353 843.321838,565.440979 
	C841.526550,562.651489 838.641724,558.169250 835.756958,553.686951 
	C835.485474,553.824402 835.213989,553.961914 834.942505,554.099426 
	C834.942505,552.277466 834.942505,550.455566 834.942505,548.633667 
	C834.553833,548.771118 834.165100,548.908630 833.776428,549.046143 
	C832.873352,547.209412 831.970276,545.372742 831.092590,543.587524 
	C830.734070,543.538757 829.505676,543.715088 829.216309,543.274597 
	C827.700439,540.967102 826.043945,538.636414 825.140137,536.066223 
	C823.230774,530.636353 821.058472,525.458862 817.005920,521.206848 
	C815.780396,519.921143 814.896301,518.271790 814.027039,516.694580 
	C812.962158,514.762695 812.077087,512.731567 811.114258,510.743317 
	C810.724670,510.872070 810.335083,511.000824 809.945496,511.129578 
	C809.945496,509.306732 809.945496,507.483887 809.945496,505.661041 
	C809.533813,505.891815 809.122070,506.122589 808.710388,506.353333 
	C804.960754,500.090027 801.211121,493.826691 797.126465,487.003754 
	C796.203796,487.003754 794.154785,486.727325 792.235168,487.106354 
	C791.064209,487.337555 789.567017,488.356293 789.125427,489.404327 
	C787.519531,493.215637 786.314392,497.194794 784.900940,501.089935 
	C784.769226,501.452881 784.256592,501.881470 783.882751,501.921112 
	C780.186707,502.313324 781.261292,506.556580 778.374573,508.500244 
	C774.777161,510.922424 775.273499,517.383423 771.328613,521.363586 
	C768.810730,523.903931 768.195679,528.603882 764.607056,531.028198 
	C764.115295,531.360413 764.322144,532.596375 763.975281,533.300476 
	C763.208557,534.857178 762.263916,536.325256 761.452759,537.861633 
	C760.914001,538.882324 760.502380,539.969177 759.994568,541.007263 
	C759.335327,542.355164 758.940979,544.018188 757.902588,544.963013 
	C753.517456,548.953064 751.905212,554.521973 749.187683,559.462463 
	C748.461853,560.782166 747.485779,561.966797 746.598145,563.194275 
	C745.082031,565.290955 743.408447,567.289185 742.065674,569.490234 
	C741.201538,570.906799 740.810364,572.611877 740.207214,574.187683 
	C739.793884,574.074585 739.380554,573.961548 738.967224,573.848450 
	C738.967224,575.668396 738.967224,577.488342 738.967224,579.308289 
	C738.667786,579.144104 738.368408,578.979919 738.068970,578.815735 
	C735.143127,583.337463 732.217346,587.859192 728.265930,593.966003 
	C728.640930,597.532837 724.607056,601.138489 721.547424,605.216980 
	C720.061401,607.197998 718.120728,608.966309 717.138000,611.166809 
	C715.623047,614.558960 714.776611,618.247253 713.582336,621.788330 
	C713.443481,622.200134 712.942810,622.546631 712.534058,622.801880 
	C708.495239,625.322632 707.091309,629.247803 706.662292,633.705139 
	C705.449890,633.950439 704.237488,634.195740 702.883545,634.469604 
	C702.883545,636.793152 702.883545,638.770569 702.883545,640.747986 
	C702.479126,640.545410 702.074646,640.342834 701.670227,640.140259 
	C701.077271,641.197693 700.454834,642.239868 699.897339,643.315674 
	C698.470764,646.068298 697.715942,650.299438 695.517883,651.264771 
	C691.953369,652.830261 691.936707,654.940613 691.914917,657.768127 
	C691.911926,658.152893 691.523438,658.691223 691.164246,658.892822 
	C686.964539,661.250671 688.713806,664.287048 690.350952,667.100098 
	C692.067566,670.049744 694.338806,672.690308 695.919922,675.701050 
	C697.422302,678.561829 697.922424,681.997742 699.641968,684.682007 
	C701.393494,687.416138 704.124329,689.514954 706.347900,691.963135 
	C706.689148,692.338867 706.734985,693.105042 706.702698,693.678467 
	C706.474792,697.721497 709.407837,699.794617 711.697876,702.464233 
	C713.878723,705.006531 715.362061,708.179504 716.968140,711.173767 
	C718.673340,714.352844 719.962646,717.765991 721.794739,720.863220 
	C724.191040,724.914062 726.941711,728.755249 729.539917,732.686646 
	C729.718018,734.033264 731.815674,734.849731 731.834839,735.712341 
	C731.977600,742.136108 739.802673,744.844543 739.240112,751.469055 
	C743.276855,751.420349 741.628784,755.134949 742.859802,756.944092 
	C744.937012,759.996582 747.071716,763.014160 749.035400,766.138672 
	C751.145935,769.496948 753.067993,772.973145 755.107971,776.376587 
	C757.166992,779.811584 759.269714,783.220459 761.353333,786.640747 
	C760.958740,786.979126 760.564087,787.317566 760.169495,787.655945 
	C761.390503,787.887451 762.611572,788.119019 762.370239,788.073242 
	C765.287537,792.845947 767.601379,796.631470 769.915283,800.417053 
	C770.239197,800.216614 770.563171,800.016113 770.887085,799.815674 
	C770.982544,801.774963 771.078003,803.734192 771.175232,805.729553 
	C772.538574,805.943054 773.643799,806.116150 774.958801,806.322083 
	C774.536621,810.174011 775.436707,813.327820 780.071045,814.997498 
z"/>
<path fill="#0052FC" opacity="1.000000" stroke="none" 
	d="
M489.000000,802.000000 
	C443.199585,802.000000 397.899139,802.000000 352.451935,802.000000 
	C350.450836,795.692688 355.006104,792.213501 357.664825,787.926392 
	C358.743103,786.187683 358.952332,783.909973 359.728027,781.302551 
	C360.272552,781.185425 361.483948,780.924927 361.408264,780.941162 
	C364.233948,776.306396 366.542084,772.520508 368.850250,768.734558 
	C370.333130,766.611267 368.986908,763.447266 373.146057,761.684143 
	C374.143280,761.261414 374.859100,756.553894 376.920624,754.173645 
	C379.415802,751.292725 381.606567,748.065857 383.421997,744.714111 
	C384.294067,743.104004 384.001068,740.862854 385.174927,739.549011 
	C388.131683,734.998413 391.088409,730.447754 394.045135,725.897156 
	C394.337158,726.080322 394.629150,726.263428 394.921143,726.446594 
	C394.921143,724.625122 394.921143,722.803650 394.921143,720.626282 
	C396.247314,720.251404 397.538574,719.886414 398.829865,719.521423 
	C398.465088,719.288391 398.100311,719.055420 397.735565,718.822388 
	C399.635864,715.550110 401.516052,712.265808 403.452209,709.014832 
	C403.879242,708.297791 404.691833,707.777832 405.006287,707.031982 
	C406.440277,703.630920 407.566803,700.086121 409.199280,696.788818 
	C410.066803,695.036621 411.785278,693.719421 413.039886,692.142395 
	C415.255249,689.357605 417.702850,686.693787 419.467621,683.640869 
	C420.369843,682.080078 420.003082,679.785706 420.906219,678.321838 
	C422.593536,676.114014 424.276917,673.903198 425.969299,671.699341 
	C427.595551,669.581604 425.088440,664.321716 430.621124,665.889709 
	C431.640686,662.929749 429.278503,659.068054 433.980865,658.451843 
	C434.107635,658.435242 434.319916,658.204468 434.305267,658.099670 
	C433.330536,651.117432 441.234589,648.859131 442.416962,642.466431 
	C443.263245,637.890808 448.603271,634.317200 450.421448,629.699341 
	C452.032745,625.606750 456.685333,623.084717 456.157349,617.930237 
	C456.074066,617.116882 457.996216,616.098145 458.404510,614.968079 
	C460.541382,611.946289 462.666565,608.916138 464.831512,605.914612 
	C465.071930,605.581238 465.747406,605.487122 465.868713,605.153748 
	C467.293182,601.240784 468.444580,597.213135 470.112000,593.410461 
	C470.944336,591.512329 472.354645,589.370728 474.090149,588.471924 
	C477.409973,586.752686 476.898834,583.522156 478.130615,580.979309 
	C479.215271,578.740173 480.797241,576.741943 481.651093,574.286926 
	C483.094360,572.508484 484.730164,570.850708 485.937988,568.924622 
	C488.003937,565.630005 489.761047,562.143494 491.722198,558.780945 
	C494.406647,554.178162 497.270264,549.676636 499.851288,545.017700 
	C502.053619,541.042358 503.873138,536.856018 506.042999,532.861206 
	C507.201782,530.727844 508.307373,527.875793 510.206024,526.982300 
	C513.791504,525.295105 511.293427,519.451050 516.213806,519.143677 
	C516.518250,519.124695 516.656128,517.694946 517.011597,516.992432 
	C517.937317,515.162903 519.114868,513.440063 519.849304,511.542084 
	C520.300476,510.376343 520.121155,508.966583 520.240723,507.468872 
	C520.880188,507.604279 522.062256,508.037994 522.171021,507.850159 
	C523.882324,504.895172 525.223572,501.705231 527.111694,498.877777 
	C530.390076,493.968536 531.032104,487.433746 536.452026,483.831573 
	C537.170227,483.354248 537.844360,482.293427 537.910950,481.453094 
	C538.088135,479.216248 537.568848,476.854218 540.915649,476.381439 
	C541.408447,476.311829 541.719604,474.442841 541.978516,473.373383 
	C542.244812,472.273682 541.932861,470.711914 542.582214,470.078491 
	C547.397766,465.381195 549.762024,459.202667 553.201904,453.664185 
	C555.969055,449.208771 557.731567,444.205841 561.590088,440.067932 
	C563.842163,437.652740 567.455322,434.017609 567.244934,429.062164 
	C567.167969,427.249725 569.929810,425.380005 571.228333,423.424683 
	C572.166321,422.012329 572.746521,420.366333 573.636841,418.917023 
	C574.290894,417.852295 575.143188,416.895111 575.997192,415.973541 
	C576.422180,415.514923 577.354919,415.357666 577.536682,414.869843 
	C578.876099,411.275635 580.083984,407.632324 581.947388,404.538818 
	C583.964478,401.564301 586.173401,398.698944 587.946289,395.585388 
	C589.822754,392.289886 591.284302,388.758179 592.200134,386.846771 
	C595.457397,381.869629 597.850769,378.212585 600.244080,374.555511 
	C600.182068,374.446198 600.120056,374.336853 600.057983,374.227509 
	C601.038940,372.387634 601.925110,370.488831 603.023743,368.722137 
	C604.533936,366.293854 606.194031,363.958130 607.809875,361.596405 
	C609.483093,359.150635 612.036316,356.914764 612.642456,354.233887 
	C613.343628,351.132843 615.787354,349.056152 616.477112,346.912018 
	C617.940308,342.363373 620.970764,339.660553 623.631104,336.299286 
	C624.562195,335.122894 624.009399,332.772003 624.160583,330.575836 
	C625.285767,330.242188 626.586975,329.856384 627.975830,329.444580 
	C627.975830,327.483063 627.975830,325.663605 627.975830,323.469757 
	C630.251221,322.757782 633.831848,322.533875 630.434753,318.115784 
	C631.828918,318.577911 632.748352,319.004395 632.822083,318.889343 
	C634.778687,315.833435 637.742310,312.496368 638.412964,309.756866 
	C639.504395,305.298737 642.325195,302.865814 644.518188,299.558289 
	C646.778870,296.148499 648.184875,292.172058 649.964905,288.443542 
	C649.633179,288.183380 649.301453,287.923218 648.969727,287.663055 
	C650.260376,287.257050 651.551086,286.851044 653.031738,286.385284 
	C651.869202,281.269989 655.424866,278.687866 658.560059,275.844147 
	C659.142273,275.315979 659.712036,274.609070 659.936462,273.877045 
	C662.083069,266.874847 662.061401,266.868195 670.106567,267.086121 
	C672.644836,271.279968 674.106873,275.910309 677.642761,279.740570 
	C680.272339,282.589020 680.753479,287.394226 682.315125,291.278259 
	C682.609497,292.010376 683.485596,292.508636 684.819702,293.839539 
	C685.849915,296.493561 687.323853,300.290680 689.084595,304.826691 
	C689.365234,304.881104 690.575378,305.115784 691.773193,305.348022 
	C692.530457,308.179779 690.568298,311.985168 695.223816,313.010559 
	C695.772034,313.131348 695.702759,316.055573 696.708496,317.317566 
	C697.769531,319.930115 698.830566,322.542664 699.891602,325.155212 
	C700.092590,325.108398 700.293640,325.061615 700.494629,325.014832 
	C701.330322,326.855652 702.125610,328.716156 703.010132,330.533234 
	C704.915100,334.446655 706.865845,338.337769 709.326965,341.978180 
	C710.447815,344.238220 709.608459,346.600830 712.633118,349.063599 
	C715.558777,351.445709 716.126099,356.724213 718.116760,361.698639 
	C718.261536,361.744110 719.551819,362.149353 720.724670,362.517731 
	C721.284851,368.023804 723.019592,372.755829 727.418396,376.208618 
	C727.735962,376.457855 727.977661,377.044739 727.949951,377.454010 
	C727.758057,380.293274 728.600281,382.337799 730.646545,384.672211 
	C733.133423,387.509155 734.122253,391.615265 736.003113,395.038330 
	C738.423401,399.443390 741.439087,403.524414 742.399658,408.654205 
	C742.526733,409.332764 744.269165,409.708801 745.474243,410.334381 
	C746.738647,413.909973 748.203552,418.052582 749.877197,422.785339 
	C750.387817,422.883667 751.597656,423.116608 752.635498,423.316437 
	C753.728638,425.951538 751.266663,429.658539 755.804077,430.786499 
	C756.410217,430.937134 756.238586,434.216492 756.491577,436.672333 
	C757.174011,436.800232 758.356506,437.021851 759.816223,437.295441 
	C759.907043,439.192291 760.001160,441.156677 760.102417,443.272064 
	C766.710815,444.976379 763.000488,450.368225 764.212952,454.664154 
	C758.815613,454.447662 760.182983,458.341980 758.943787,460.767792 
	C754.170288,468.998535 749.396790,477.229309 744.623291,485.460052 
	C745.074097,485.808624 745.524902,486.157166 745.975769,486.505707 
	C744.768555,486.780884 743.561401,487.056030 742.907349,487.205078 
	C741.129456,491.041412 739.553650,494.441650 737.815918,498.191284 
	C733.184387,497.330414 735.619263,501.848755 733.879822,503.620148 
	C730.488159,509.920837 727.557678,516.532532 723.576294,522.435486 
	C719.525024,528.442078 716.145386,534.655029 712.455322,541.277405 
	C712.621094,541.298340 711.550903,541.163208 710.188965,540.991272 
	C710.087830,543.173157 709.997437,545.123230 709.890503,547.430481 
	C708.700378,547.766846 707.395264,548.135681 706.393127,548.418884 
	C705.983887,550.799316 705.923218,552.958069 705.185791,554.853516 
	C704.625305,556.294189 703.204224,557.400085 701.609253,559.327942 
	C702.022644,559.327942 700.582764,559.051819 700.436340,559.370300 
	C698.826111,562.872498 697.657837,566.592468 695.884521,570.000977 
	C694.199829,573.239136 691.898560,576.152039 689.943298,579.255127 
	C687.808105,582.643860 685.758728,586.086731 684.188171,589.834656 
	C681.137085,591.442139 681.137085,591.442139 680.874634,596.048645 
	C679.125732,598.418762 678.022278,599.914246 676.918823,601.409668 
	C677.247681,601.667542 677.576477,601.925354 677.905334,602.183167 
	C676.992676,602.335693 675.512329,602.195496 675.258545,602.687683 
	C673.483948,606.129395 672.257812,609.877014 670.290833,613.191223 
	C667.421082,618.026367 665.181641,623.267578 660.854736,627.248901 
	C659.644226,628.362732 660.015991,631.196106 659.591614,633.646240 
	C658.707947,633.829956 657.498535,634.081360 656.061646,634.380127 
	C656.061646,636.462097 656.061646,638.422852 656.061646,640.164368 
	C654.279602,641.650391 649.709229,641.079163 652.230347,643.998230 
	C650.909485,646.015991 650.001038,647.447388 649.046814,648.847595 
	C648.287659,649.961609 647.500061,651.058838 646.668030,652.118713 
	C646.375183,652.491760 645.706665,652.654419 645.560303,653.044556 
	C644.326721,656.333008 643.393555,659.754150 641.915649,662.923523 
	C641.029419,664.824036 639.148743,666.235535 638.041565,668.064453 
	C636.537292,670.549255 635.410767,673.259277 634.000061,675.804993 
	C632.701294,678.148743 631.241028,680.403015 630.035034,682.751038 
	C628.066772,685.661072 625.902161,688.463379 624.219482,691.530090 
	C623.465332,692.904602 624.498108,695.296143 621.549927,695.223694 
	C621.062256,695.211670 620.199585,696.340332 620.095398,697.030212 
	C619.073242,703.804871 614.170288,708.190369 610.560242,713.457092 
	C608.013245,717.172974 606.928162,721.890991 604.913147,726.842957 
	C604.582520,726.898621 603.365906,727.103333 601.892395,727.351257 
	C602.242004,728.805908 602.534607,730.023254 602.705078,730.732361 
	C601.404114,731.473022 599.707947,731.868408 599.242859,732.848145 
	C598.664795,734.065979 599.104248,735.766663 599.104248,737.258850 
	C598.648987,737.067505 598.193787,736.876160 597.738525,736.684814 
	C595.518127,741.121521 593.297668,745.558289 591.077209,749.994995 
	C591.017273,749.875305 590.957336,749.755615 590.897400,749.635925 
	C588.931946,752.420349 586.715332,755.064880 585.066589,758.025696 
	C583.138000,761.489319 581.704407,765.228638 579.614502,768.490234 
	C577.323120,772.236816 575.031738,775.983398 572.740356,779.729919 
	C573.111755,780.033203 573.483093,780.336487 573.854492,780.639709 
	C572.635925,780.877991 571.417419,781.116211 570.219666,781.350403 
	C569.494934,784.204956 571.419556,788.111877 566.747925,788.824463 
	C567.944824,792.462769 563.871948,793.456421 563.128906,796.000854 
	C561.813721,800.504395 559.078308,802.093689 554.480774,802.063477 
	C532.821350,801.920837 511.160400,802.000000 489.000000,802.000000 
z"/>
<path fill="#0052FC" opacity="1.000000" stroke="none" 
	d="
M504.012329,461.999237 
	C502.813080,463.926086 502.058655,465.840546 501.304230,467.754974 
	C501.185730,467.636688 501.067200,467.518433 500.948700,467.400146 
	C496.255371,475.404144 491.562073,483.408142 486.868744,491.412140 
	C486.845825,491.396515 486.822937,491.380890 486.800018,491.365234 
	C484.436401,495.370270 482.072784,499.375305 479.709137,503.380341 
	C480.140137,503.723419 480.571136,504.066528 481.002136,504.409637 
	C479.690430,504.772583 478.378723,505.135498 476.999207,505.517212 
	C476.999207,507.555054 476.999207,509.377960 476.999207,511.200836 
	C476.662415,511.005829 476.325623,510.810822 475.988831,510.615814 
	C473.593781,514.232117 471.198700,517.848450 468.803619,521.464783 
	C468.850830,521.566895 468.898010,521.669006 468.945190,521.771057 
	C467.963196,523.611145 466.921967,525.422546 466.013885,527.298462 
	C464.825470,529.753540 464.323914,532.874573 462.488129,534.610840 
	C459.065491,537.848083 456.993835,541.523804 455.458496,545.884827 
	C454.493347,548.626221 452.368286,550.959229 450.815338,553.559448 
	C448.453186,557.238159 446.091034,560.916870 444.123230,563.981445 
	C441.555115,569.018372 439.371429,573.301270 437.187775,577.584106 
	C437.115387,577.504150 437.043030,577.424194 436.970642,577.344177 
	C434.978943,580.323608 432.802521,583.198730 431.045868,586.310791 
	C429.174042,589.626953 427.699310,593.167236 425.859741,596.385620 
	C423.489044,600.076965 421.118317,603.768311 418.747620,607.459656 
	C418.825012,607.534912 418.902435,607.610229 418.979828,607.685486 
	C417.653320,610.055847 416.326813,612.426270 415.000305,614.796631 
	C414.946960,614.764404 414.893616,614.732239 414.840271,614.700012 
	C410.098053,622.954407 405.355835,631.208801 400.613617,639.463257 
	C400.655426,639.459290 400.697266,639.455383 400.739075,639.451477 
	C398.376556,643.153992 396.014038,646.856506 393.651520,650.559021 
	C394.071442,650.906494 394.491364,651.253967 394.911285,651.601440 
	C393.692017,651.849731 392.472778,652.098022 391.126282,652.372253 
	C391.126282,654.344238 391.126282,656.152649 391.126282,657.960999 
	C390.743378,657.780518 390.360474,657.600037 389.977570,657.419556 
	C387.653717,661.594360 385.358704,665.785522 382.998047,669.939392 
	C380.590820,674.175232 378.119080,678.374329 376.053864,681.936951 
	C372.790741,687.046753 369.951294,691.493103 367.111847,695.939453 
	C366.762909,695.748352 366.413971,695.557312 366.065033,695.366272 
	C366.065033,697.341309 366.065033,699.316406 366.065033,701.291504 
	C365.671509,701.114136 365.277985,700.936768 364.884460,700.759460 
	C360.538696,709.197754 353.596344,716.180298 351.826416,724.406921 
	C349.015778,728.247131 346.498688,730.786926 345.097137,733.838928 
	C343.502960,737.310364 339.532745,739.899475 340.705475,744.505005 
	C339.623962,744.761597 338.542450,745.018188 337.460938,745.274719 
	C337.794739,745.500305 338.128510,745.725830 338.462311,745.951416 
	C336.094604,749.399353 333.733429,752.851868 331.352295,756.290527 
	C330.984375,756.821899 330.330933,757.225037 330.139526,757.797729 
	C329.025665,761.130249 328.338806,764.650757 326.852142,767.798157 
	C325.768677,770.091919 323.465912,771.775757 322.075470,773.965698 
	C319.467590,778.072998 317.126801,782.349915 314.674927,786.556274 
	C315.090363,786.895203 315.505798,787.234131 315.921234,787.572998 
	C314.701385,787.828491 313.481537,788.083923 312.487976,788.291992 
	C310.938660,793.543945 308.754700,798.210999 304.602478,801.658936 
	C303.972198,802.182312 302.677948,801.988159 301.690826,801.988098 
	C234.534653,801.980164 167.378494,801.958191 100.222321,801.933411 
	C100.063545,801.933350 99.904778,801.873535 99.438110,801.779846 
	C98.079781,796.289917 98.934166,791.677979 103.801941,787.792419 
	C105.139938,786.724487 104.966927,783.763550 106.573326,782.017334 
	C107.079315,780.441956 107.313812,778.701416 108.150017,777.326965 
	C109.701805,774.776428 111.608932,772.442505 113.359886,770.012512 
	C114.128639,768.945679 114.760612,767.753601 115.656212,766.809570 
	C118.752068,763.546082 117.530380,757.969910 122.484795,755.363098 
	C124.598183,754.251160 125.263695,750.405762 126.611244,747.815002 
	C128.066910,745.016418 129.550720,742.232483 130.633423,740.179504 
	C133.018845,736.410706 134.959488,733.307556 136.942047,730.231567 
	C137.673233,729.097046 138.476318,728.005615 139.298370,726.934265 
	C139.788269,726.295837 140.618744,725.825073 140.883301,725.123291 
	C142.125916,721.827148 143.030975,718.390991 144.452438,715.180054 
	C145.246933,713.385437 146.810257,711.929993 148.033432,710.326477 
	C150.187119,707.503113 152.625900,704.845215 154.386261,701.795227 
	C155.293579,700.223328 154.997406,697.956787 156.103119,696.585571 
	C158.016815,693.591125 159.955322,690.612122 161.833740,687.595703 
	C162.765167,686.099915 163.586105,684.535339 164.457062,683.001953 
	C164.926132,683.171692 165.395218,683.341492 165.864288,683.511230 
	C165.864288,681.703247 165.864288,679.895264 165.864288,677.718262 
	C167.993637,677.043518 169.726562,676.505432 169.353348,673.168701 
	C169.117523,671.060425 171.616287,668.230652 173.528076,666.388000 
	C177.056412,662.987427 178.697647,658.859619 180.175354,654.358337 
	C180.945801,652.011475 183.373718,650.256897 184.780426,648.060181 
	C187.386414,643.990845 189.792175,639.793213 192.281342,635.648987 
	C191.846420,635.291199 191.411514,634.933411 190.976608,634.575684 
	C192.277420,634.224426 193.578232,633.873169 195.084213,633.466553 
	C194.765823,632.102844 194.481079,630.883179 194.148804,629.459961 
	C194.935059,629.603333 196.103622,630.032288 196.245026,629.809509 
	C198.077972,626.920654 200.271072,624.115601 201.377899,620.942139 
	C203.362045,615.253357 206.243225,610.272705 210.334564,605.893982 
	C211.142975,605.028748 211.376801,603.652832 212.017960,602.599060 
	C212.992447,600.997375 214.371521,599.585144 215.061905,597.882812 
	C215.817474,596.019714 215.985535,593.918335 216.523575,591.384155 
	C217.203552,591.231995 218.409439,590.962097 219.019180,590.825623 
	C220.951080,587.064270 221.987381,582.754944 224.720016,580.515930 
	C226.604034,578.972168 226.929062,577.921326 227.005325,576.059570 
	C227.053802,574.876221 230.992813,569.730835 231.940369,568.841003 
	C232.704742,568.123169 232.848541,566.789185 233.444809,565.839844 
	C235.883469,561.957031 240.071289,558.277039 240.457642,554.221558 
	C240.972290,548.819397 244.810425,547.166260 247.388412,543.984924 
	C247.926956,543.320374 247.662415,542.063293 248.031464,541.190735 
	C248.769501,539.445801 249.689850,537.778015 250.534927,536.078308 
	C251.004333,536.232300 251.473755,536.386292 251.943176,536.540283 
	C251.943176,534.570862 251.943176,532.601501 251.943176,531.531799 
	C259.251251,524.046692 262.720612,515.377502 266.802979,506.960144 
	C266.653320,506.841217 267.074554,507.175903 267.495758,507.510590 
	C269.330994,504.166595 271.157623,500.817780 273.007416,497.481903 
	C273.478699,496.631958 274.002838,495.809052 274.539764,494.998260 
	C275.342377,493.786346 276.272827,492.649017 276.976440,491.384003 
	C277.969208,489.599121 278.804474,487.726593 279.707092,485.891541 
	C280.094269,486.048737 280.481476,486.205933 280.868652,486.363129 
	C280.554626,485.156647 280.240631,483.950165 279.926605,482.743683 
	C280.429596,482.987885 280.932617,483.232086 281.435608,483.476318 
	C282.145477,482.694336 283.227844,482.018555 283.487274,481.108215 
	C284.019714,479.239624 283.430389,476.870972 286.537476,476.677429 
	C286.996338,476.648834 287.762665,475.187134 287.714142,474.431702 
	C287.429260,469.996735 290.771118,467.784241 293.104828,464.861694 
	C294.432251,463.199493 295.082855,460.996613 296.036957,459.036560 
	C296.968597,457.122711 297.898621,455.208069 299.349884,452.223114 
	C299.280121,452.244110 300.580139,451.852844 301.880157,451.461578 
	C301.476532,451.126556 301.072906,450.791534 300.669281,450.456543 
	C302.567902,447.430145 304.483215,444.414093 306.359192,441.373779 
	C307.600647,439.361847 308.785645,437.315125 309.525146,435.046356 
	C314.014008,428.123688 318.737274,421.339355 322.926575,414.239899 
	C327.209320,406.982025 330.968414,399.415100 334.545990,392.748901 
	C343.488678,377.800507 352.004120,363.566376 360.519531,349.332245 
	C360.082916,349.005280 359.646332,348.678314 359.209717,348.351379 
	C360.421387,348.116302 361.633026,347.881256 363.035797,347.609131 
	C362.143036,342.324402 364.901367,339.233643 368.704865,336.587433 
	C369.311523,336.165344 369.035858,334.636169 369.476471,333.776947 
	C370.164490,332.435150 371.076996,331.199524 371.980164,329.982574 
	C372.243927,329.627228 373.044678,329.585358 373.183136,329.235260 
	C374.578522,325.706482 375.887329,322.143494 377.188934,318.674225 
	C381.780792,318.845337 379.211792,313.729797 381.162506,312.971436 
	C385.131653,311.428436 383.592468,308.328735 384.190582,305.435730 
	C385.256653,305.200500 386.469330,304.932953 386.405396,304.947052 
	C389.220703,300.330200 391.527252,296.547577 393.833832,292.764954 
	C395.349304,290.645203 394.067932,287.652863 398.164948,285.802948 
	C400.233978,284.868774 400.505585,280.386108 402.073395,277.801178 
	C404.071442,274.506866 406.167664,271.092712 408.937256,268.492523 
	C412.178040,265.449982 414.645630,266.718414 417.092804,270.204407 
	C420.246948,274.697510 421.281128,280.166321 424.235016,284.512024 
	C425.973663,287.069885 427.529480,289.407318 428.286652,292.372131 
	C428.356323,292.644836 429.807190,292.564789 429.719391,292.555695 
	C431.466187,296.448090 433.059662,299.998779 434.653107,303.549469 
	C434.814392,303.498962 434.975647,303.448425 435.136902,303.397919 
	C437.447266,308.134766 439.757599,312.871582 442.067932,317.608429 
	C441.710846,317.874420 441.353729,318.140411 440.996643,318.406403 
	C442.307251,318.770844 443.617828,319.135284 444.796783,319.463104 
	C445.456543,322.244141 443.731293,325.554779 447.839203,326.926575 
	C448.633484,327.191833 448.499573,330.236664 448.913239,332.714539 
	C449.247711,332.789673 450.428192,333.054871 451.628448,333.324493 
	C453.008545,336.000000 449.778564,340.987518 455.110901,341.252777 
	C456.703400,345.786743 458.178619,349.986847 459.863556,354.783997 
	C460.377899,354.883209 461.586945,355.116394 461.408966,355.082062 
	C464.084076,360.795258 466.320862,365.572357 468.557648,370.349457 
	C469.031067,370.141754 469.504486,369.934021 469.977905,369.726318 
	C469.977905,371.545715 469.977905,373.365082 469.977905,375.595764 
	C471.081604,375.799438 472.129700,375.992828 473.190002,376.188477 
	C473.201904,380.698273 478.294067,390.440613 479.561462,391.143616 
	C483.238678,398.144165 486.915894,405.144684 490.593140,412.145233 
	C490.153137,414.579254 490.984985,416.324341 494.850281,417.138733 
	C494.850281,418.486053 494.850281,420.385284 494.850281,422.590027 
	C498.939392,423.022430 500.070404,425.089233 498.967377,427.274048 
	C500.568207,430.689728 501.771942,433.258087 503.402527,436.737183 
	C506.504761,439.098877 507.926361,443.778137 508.902130,448.414703 
	C509.989746,453.582733 505.965485,457.453918 504.012329,461.999237 
z"/>
<path fill="#0052FC" opacity="1.000000" stroke="none" 
	d="
M779.637268,814.986450 
	C775.436707,813.327820 774.536621,810.174011 774.958801,806.322083 
	C773.643799,806.116150 772.538574,805.943054 771.175232,805.729553 
	C771.078003,803.734192 770.982544,801.774963 770.887085,799.815674 
	C770.563171,800.016113 770.239197,800.216614 769.915283,800.417053 
	C767.601379,796.631470 765.287537,792.845947 762.370239,788.073242 
	C762.611572,788.119019 761.390503,787.887451 760.169495,787.655945 
	C760.564087,787.317566 760.958740,786.979126 761.353333,786.640747 
	C759.269714,783.220459 757.166992,779.811584 755.107971,776.376587 
	C753.067993,772.973145 751.145935,769.496948 749.035400,766.138672 
	C747.071716,763.014160 744.937012,759.996582 742.859802,756.944092 
	C741.628784,755.134949 743.276855,751.420349 739.240112,751.469055 
	C739.802673,744.844543 731.977600,742.136108 731.834839,735.712341 
	C731.815674,734.849731 729.718018,734.033264 729.539917,732.686646 
	C726.941711,728.755249 724.191040,724.914062 721.794739,720.863220 
	C719.962646,717.765991 718.673340,714.352844 716.968140,711.173767 
	C715.362061,708.179504 713.878723,705.006531 711.697876,702.464233 
	C709.407837,699.794617 706.474792,697.721497 706.702698,693.678467 
	C706.734985,693.105042 706.689148,692.338867 706.347900,691.963135 
	C704.124329,689.514954 701.393494,687.416138 699.641968,684.682007 
	C697.922424,681.997742 697.422302,678.561829 695.919922,675.701050 
	C694.338806,672.690308 692.067566,670.049744 690.350952,667.100098 
	C688.713806,664.287048 686.964539,661.250671 691.164246,658.892822 
	C691.523438,658.691223 691.911926,658.152893 691.914917,657.768127 
	C691.936707,654.940613 691.953369,652.830261 695.517883,651.264771 
	C697.715942,650.299438 698.470764,646.068298 699.897339,643.315674 
	C700.454834,642.239868 701.077271,641.197693 701.670227,640.140259 
	C702.074646,640.342834 702.479126,640.545410 702.883545,640.747986 
	C702.883545,638.770569 702.883545,636.793152 702.883545,634.469604 
	C704.237488,634.195740 705.449890,633.950439 706.663330,633.705078 
	C707.091309,629.247803 708.495239,625.322632 712.534058,622.801880 
	C712.942810,622.546631 713.443481,622.200134 713.582336,621.788330 
	C714.776611,618.247253 715.623047,614.558960 717.138000,611.166809 
	C718.120728,608.966309 720.061401,607.197998 721.547424,605.216980 
	C724.607056,601.138489 728.640930,597.532837 728.265930,593.966003 
	C732.217346,587.859192 735.143127,583.337463 738.068970,578.815735 
	C738.368408,578.979919 738.667786,579.144104 738.967224,579.308289 
	C738.967224,577.488342 738.967224,575.668396 738.967224,573.848450 
	C739.380554,573.961548 739.793884,574.074585 740.207214,574.187683 
	C740.810364,572.611877 741.201538,570.906799 742.065674,569.490234 
	C743.408447,567.289185 745.082031,565.290955 746.598145,563.194275 
	C747.485779,561.966797 748.461853,560.782166 749.187683,559.462463 
	C751.905212,554.521973 753.517456,548.953064 757.902588,544.963013 
	C758.940979,544.018188 759.335327,542.355164 759.994568,541.007263 
	C760.502380,539.969177 760.914001,538.882324 761.452759,537.861633 
	C762.263916,536.325256 763.208557,534.857178 763.975281,533.300476 
	C764.322144,532.596375 764.115295,531.360413 764.607056,531.028198 
	C768.195679,528.603882 768.810730,523.903931 771.328613,521.363586 
	C775.273499,517.383423 774.777161,510.922424 778.374573,508.500244 
	C781.261292,506.556580 780.186707,502.313324 783.882751,501.921112 
	C784.256592,501.881470 784.769226,501.452881 784.900940,501.089935 
	C786.314392,497.194794 787.519531,493.215637 789.125427,489.404327 
	C789.567017,488.356293 791.064209,487.337555 792.235168,487.106354 
	C794.154785,486.727325 796.203796,487.003754 797.126465,487.003754 
	C801.211121,493.826691 804.960754,500.090027 808.710388,506.353333 
	C809.122070,506.122589 809.533813,505.891815 809.945496,505.661041 
	C809.945496,507.483887 809.945496,509.306732 809.945496,511.129578 
	C810.335083,511.000824 810.724670,510.872070 811.114258,510.743317 
	C812.077087,512.731567 812.962158,514.762695 814.027039,516.694580 
	C814.896301,518.271790 815.780396,519.921143 817.005920,521.206848 
	C821.058472,525.458862 823.230774,530.636353 825.140137,536.066223 
	C826.043945,538.636414 827.700439,540.967102 829.216309,543.274597 
	C829.505676,543.715088 830.734070,543.538757 831.092590,543.587524 
	C831.970276,545.372742 832.873352,547.209412 833.776428,549.046143 
	C834.165100,548.908630 834.553833,548.771118 834.942505,548.633667 
	C834.942505,550.455566 834.942505,552.277466 834.942505,554.099426 
	C835.213989,553.961914 835.485474,553.824402 835.756958,553.686951 
	C838.641724,558.169250 841.526550,562.651489 843.321838,565.440979 
	C847.093323,571.524353 849.929138,575.831116 852.477356,580.301758 
	C854.203186,583.329529 855.442139,586.630676 857.053894,589.728882 
	C858.282288,592.090027 859.754211,594.324524 861.117859,596.615356 
	C860.767700,596.920593 860.417603,597.225769 860.067505,597.531006 
	C861.282104,597.800354 862.496704,598.069702 862.854492,598.149048 
	C864.278198,601.173462 865.463989,603.692322 866.649719,606.211182 
	C866.909058,606.044434 867.168396,605.877686 867.427734,605.710938 
	C867.288879,606.639648 867.150024,607.568359 866.985901,608.666016 
	C868.393188,608.898193 869.612549,609.099365 870.831909,609.300537 
	C870.477722,609.618286 870.123535,609.936035 869.769348,610.253784 
	C871.178162,612.527771 872.666016,614.757324 873.974548,617.087585 
	C875.401184,619.627930 876.505005,622.358521 878.033264,624.830688 
	C880.024353,628.051514 882.292847,631.100891 884.451111,634.217773 
	C884.539551,634.345581 884.853516,634.442688 884.839600,634.497925 
	C883.568115,639.539917 889.348389,641.312073 889.971375,645.515076 
	C890.098755,646.374207 891.038818,647.112915 891.604187,647.907166 
	C892.027649,647.802368 892.451172,647.697571 892.874634,647.592773 
	C892.555481,648.785400 892.236389,649.978027 891.827637,651.505737 
	C893.249329,651.804810 894.440552,652.055420 895.155762,652.205933 
	C897.507019,659.616821 900.390564,666.258484 906.838318,671.426636 
	C906.633911,676.399353 911.161560,679.835632 913.074951,684.380432 
	C914.372070,687.461609 918.377686,689.317322 917.441467,693.381470 
	C917.368958,693.696106 917.814514,694.442688 918.084595,694.477295 
	C922.904846,695.093750 920.191711,699.092529 922.287415,700.900757 
	C923.317078,702.559753 924.358459,704.211731 925.373901,705.879333 
	C927.054565,708.639282 928.718445,711.409424 930.770325,714.805542 
	C933.110535,718.573242 936.670044,722.665344 938.266357,727.416992 
	C939.442627,730.918274 945.161621,731.891541 943.047058,736.761902 
	C947.822083,737.726135 943.971741,745.141113 949.699158,745.721863 
	C950.299500,745.782715 950.447754,748.988342 951.090210,750.623108 
	C951.331604,751.237183 952.382812,751.532959 953.623474,752.335022 
	C953.550537,752.660095 953.257874,753.964722 952.885620,755.624207 
	C954.313232,755.874756 955.519653,756.086426 956.680725,756.290161 
	C956.989624,762.110657 960.281982,766.184326 963.502258,770.454590 
	C965.498596,773.101685 965.773193,777.710571 968.199707,779.215576 
	C971.898560,781.509888 969.388000,787.257568 974.296265,788.203796 
	C974.690918,788.279968 974.595703,790.012451 975.058655,790.774475 
	C976.944824,793.879089 978.959717,796.905518 981.807007,799.371338 
	C982.740723,804.304993 983.674500,809.238647 984.764404,814.997498 
	C915.902283,814.997498 847.986694,814.997498 779.637268,814.986450 
z"/>
</svg>