<svg width="32" height="32" viewBox="0 0 32 32" fill="none" xmlns="http://www.w3.org/2000/svg">
<g id="Frame" clip-path="url(#clip0_86_1228)">
<path id="Vector" d="M25.3333 11.6133L18.2226 6.08264C17.5986 5.59719 16.8306 5.33362 16.04 5.33362C15.2494 5.33362 14.4813 5.59719 13.8573 6.08264L6.74529 11.6133C6.31788 11.9457 5.97208 12.3713 5.7343 12.8578C5.49651 13.3442 5.37304 13.8785 5.37329 14.42V24.02C5.37329 24.7272 5.65424 25.4055 6.15434 25.9056C6.65444 26.4057 7.33271 26.6866 8.03996 26.6866H24.04C24.7472 26.6866 25.4255 26.4057 25.9256 25.9056C26.4257 25.4055 26.7066 24.7272 26.7066 24.02V14.42C26.7066 13.3226 26.2 12.2866 25.3333 11.6133Z" fill="#7065F0" stroke="#7065F0" stroke-width="3" stroke-linecap="round" stroke-linejoin="round"/>
<path id="Vector_2" d="M21.3333 20C18.3866 21.7773 13.6106 21.7773 10.6666 20" stroke="#F9F9F9" stroke-width="3" stroke-linecap="round" stroke-linejoin="round"/>
</g>
<defs>
<clipPath id="clip0_86_1228">
<rect width="32" height="32" fill="white"/>
</clipPath>
</defs>
</svg>
