<svg width="20" height="20" viewBox="0 0 20 20" fill="none" xmlns="http://www.w3.org/2000/svg">
<g id="Icon">
<path id="Vector" d="M18.3334 7.50009V12.5001C18.3334 14.5834 17.9168 16.0418 16.9834 16.9834L11.6667 11.6668L18.1084 5.2251C18.2584 5.88343 18.3334 6.63343 18.3334 7.50009Z" stroke="#7065F0" stroke-width="2" stroke-linecap="round" stroke-linejoin="round"/>
<path id="Vector_2" d="M18.1084 5.22509L5.22507 18.1084C2.71674 17.5334 1.66675 15.8001 1.66675 12.5001V7.50008C1.66675 3.33341 3.33341 1.66675 7.50008 1.66675H12.5001C15.8001 1.66675 17.5334 2.71675 18.1084 5.22509Z" stroke="#7065F0" stroke-width="2" stroke-linecap="round" stroke-linejoin="round"/>
<path id="Vector_3" d="M16.9834 16.9834C16.0418 17.9168 14.5834 18.3334 12.5001 18.3334H7.50011C6.63344 18.3334 5.88343 18.2584 5.2251 18.1084L11.6668 11.6667L16.9834 16.9834Z" stroke="#7065F0" stroke-width="2" stroke-linecap="round" stroke-linejoin="round"/>
<path id="Vector_4" d="M5.19997 6.6501C5.76664 4.20843 9.43332 4.20843 9.99998 6.6501C10.325 8.08343 9.42497 9.3001 8.6333 10.0501C8.0583 10.6001 7.14999 10.6001 6.56665 10.0501C5.77499 9.3001 4.86664 8.08343 5.19997 6.6501Z" stroke="#7065F0" stroke-width="2"/>
<path id="Vector_5" d="M7.57884 7.24992H7.58632" stroke="#7065F0" stroke-width="2" stroke-linecap="round" stroke-linejoin="round"/>
</g>
</svg>
