<svg width="22" height="22" viewBox="0 0 22 22" fill="none" xmlns="http://www.w3.org/2000/svg">
<g id="call">
<path id="Vector" d="M20.9701 17.3304C20.9701 17.6904 20.8901 18.0604 20.7201 18.4204C20.5501 18.7804 20.3301 19.1204 20.0401 19.4404C19.5501 19.9804 19.0101 20.3704 18.4001 20.6204C17.8001 20.8704 17.1501 21.0004 16.4501 21.0004C15.4301 21.0004 14.3401 20.7604 13.1901 20.2704C12.0401 19.7804 10.8901 19.1204 9.75006 18.2904C8.60006 17.4504 7.51006 16.5204 6.47006 15.4904C5.44006 14.4504 4.51006 13.3604 3.68006 12.2204C2.86006 11.0804 2.20006 9.94037 1.72006 8.81037C1.24006 7.67037 1.00006 6.58037 1.00006 5.54037C1.00006 4.86037 1.12006 4.21037 1.36006 3.61037C1.60006 3.00037 1.98006 2.44037 2.51006 1.94037C3.15006 1.31037 3.85006 1.00037 4.59006 1.00037C4.87006 1.00037 5.15006 1.06037 5.40006 1.18037C5.66006 1.30037 5.89006 1.48037 6.07006 1.74037L8.39006 5.01037C8.57006 5.26037 8.70006 5.49037 8.79006 5.71037C8.88006 5.92037 8.93006 6.13037 8.93006 6.32037C8.93006 6.56037 8.86006 6.80037 8.72006 7.03037C8.59006 7.26037 8.40006 7.50037 8.16006 7.74037L7.40006 8.53037C7.29006 8.64037 7.24006 8.77037 7.24006 8.93037C7.24006 9.01037 7.25006 9.08037 7.27006 9.16037C7.30006 9.24037 7.33006 9.30037 7.35006 9.36037C7.53006 9.69037 7.84006 10.1204 8.28006 10.6404C8.73006 11.1604 9.21006 11.6904 9.73006 12.2204C10.2701 12.7504 10.7901 13.2404 11.3201 13.6904C11.8401 14.1304 12.2701 14.4304 12.6101 14.6104C12.6601 14.6304 12.7201 14.6604 12.7901 14.6904C12.8701 14.7204 12.9501 14.7304 13.0401 14.7304C13.2101 14.7304 13.3401 14.6704 13.4501 14.5604L14.2101 13.8104C14.4601 13.5604 14.7001 13.3704 14.9301 13.2504C15.1601 13.1104 15.3901 13.0404 15.6401 13.0404C15.8301 13.0404 16.0301 13.0804 16.2501 13.1704C16.4701 13.2604 16.7001 13.3904 16.9501 13.5604L20.2601 15.9104C20.5201 16.0904 20.7001 16.3004 20.8101 16.5504C20.9101 16.8004 20.9701 17.0504 20.9701 17.3304Z" stroke="#000929" stroke-width="2" stroke-miterlimit="10"/>
</g>
</svg>
