<svg width="20" height="20" viewBox="0 0 20 20" fill="none" xmlns="http://www.w3.org/2000/svg">
<path id="Vector" d="M18.7125 5.88203L12.0463 0.701808C11.4612 0.247113 10.7412 0.000244141 10 0.000244141C9.25881 0.000244141 8.53876 0.247113 7.95375 0.701808L1.28625 5.88203C0.885554 6.19334 0.561367 6.59203 0.338444 7.04764C0.115522 7.50324 -0.000239257 8.00372 3.71268e-07 8.51085V17.5026C3.71268e-07 18.165 0.263392 18.8003 0.732233 19.2687C1.20107 19.7371 1.83696 20.0002 2.5 20.0002H17.5C18.163 20.0002 18.7989 19.7371 19.2678 19.2687C19.7366 18.8003 20 18.165 20 17.5026V8.51085C20 7.48305 19.525 6.51269 18.7125 5.88203Z" fill="#000929"/>
</svg>
